<svg width="16" height="20" viewBox="0 0 16 20" fill="none" xmlns="http://www.w3.org/2000/svg">
<path d="M7.68745 6.01898C6.95745 6.01898 5.82745 5.18898 4.63745 5.21898C3.06745 5.23898 1.62745 6.12898 0.81745 7.53898C-0.81255 10.369 0.39745 14.549 1.98745 16.849C2.76745 17.969 3.68745 19.229 4.90745 19.189C6.07745 19.139 6.51745 18.429 7.93745 18.429C9.34745 18.429 9.74745 19.189 10.9874 19.159C12.2474 19.139 13.0474 18.019 13.8174 16.889C14.7074 15.589 15.0774 14.329 15.0975 14.259C15.0675 14.249 12.6475 13.319 12.6175 10.519C12.5975 8.17898 14.5274 7.05898 14.6174 7.00898C13.5175 5.39898 11.8274 5.21898 11.2374 5.17898C9.69745 5.05898 8.40745 6.01898 7.68745 6.01898ZM10.2874 3.65898C10.9375 2.87898 11.3674 1.78898 11.2474 0.708984C10.3174 0.748984 9.19745 1.32898 8.52745 2.10898C7.92745 2.79898 7.40745 3.90898 7.54745 4.96898C8.57745 5.04898 9.63745 4.43898 10.2874 3.65898Z" fill="black"/>
</svg>
