<svg width="18" height="18" viewBox="0 0 18 18" fill="none" xmlns="http://www.w3.org/2000/svg">
<path fill-rule="evenodd" clip-rule="evenodd" d="M8.99997 0C4.03103 0 -3.44011e-05 4.03106 -3.44011e-05 9C-3.44011e-05 13.9689 4.03103 18 8.99997 18C13.9689 18 18 13.9689 18 9C18 4.03106 13.9689 0 8.99997 0ZM8.99997 16.1964C5.03203 16.1964 1.80357 12.9679 1.80357 9C1.80357 5.03206 5.03203 1.80361 8.99997 1.80361C12.9679 1.80361 16.1964 5.03206 16.1964 9C16.1964 12.9679 12.9679 16.1964 8.99997 16.1964ZM5.6182 10.3527L9.67632 2.68738V7.64729H12.3817L8.44987 15.3126V10.3527H5.6182Z" fill="white"/>
</svg>
