<svg width="17" height="17" viewBox="0 0 17 17" fill="none" xmlns="http://www.w3.org/2000/svg">
<path d="M6.3724 2.125H10.6224L12.0391 3.54167H14.8724C15.2636 3.54167 15.5807 3.8588 15.5807 4.25V14.1667C15.5807 14.5579 15.2636 14.875 14.8724 14.875H2.1224C1.7312 14.875 1.41406 14.5579 1.41406 14.1667V4.25C1.41406 3.8588 1.7312 3.54167 2.1224 3.54167H4.95573L6.3724 2.125ZM8.4974 13.4583C10.8446 13.4583 12.7474 11.5555 12.7474 9.20833C12.7474 6.86112 10.8446 4.95833 8.4974 4.95833C6.15018 4.95833 4.2474 6.86112 4.2474 9.20833C4.2474 11.5555 6.15018 13.4583 8.4974 13.4583ZM8.4974 12.0417C6.93259 12.0417 5.66406 10.7731 5.66406 9.20833C5.66406 7.64355 6.93259 6.375 8.4974 6.375C10.0622 6.375 11.3307 7.64355 11.3307 9.20833C11.3307 10.7731 10.0622 12.0417 8.4974 12.0417Z" fill="white"/>
</svg>
