<svg width="512" height="512" viewBox="0 0 512 512" fill="none" xmlns="http://www.w3.org/2000/svg">
<path d="M256 204.8C245.914 204.8 235.928 206.787 226.61 210.646C217.292 214.506 208.826 220.163 201.694 227.294C194.563 234.426 188.906 242.892 185.046 252.21C181.186 261.528 179.2 271.515 179.2 281.6C179.2 291.686 181.186 301.672 185.046 310.99C188.906 320.308 194.563 328.774 201.694 335.906C208.826 343.038 217.292 348.695 226.61 352.554C235.928 356.414 245.914 358.4 256 358.4C276.369 358.4 295.903 350.309 310.306 335.906C324.709 321.503 332.8 301.969 332.8 281.6C332.8 261.232 324.709 241.697 310.306 227.294C295.903 212.892 276.369 204.8 256 204.8ZM460.8 128H399.36C394.938 127.799 390.671 126.31 387.083 123.718C383.495 121.126 380.742 117.543 379.162 113.408L363.264 65.7666C361.672 61.6366 358.912 58.0597 355.32 55.4729C351.729 52.8861 347.462 51.4014 343.04 51.2002H168.96C160.512 51.2002 151.398 57.7538 148.762 65.741L132.838 113.408C131.255 117.541 128.501 121.122 124.914 123.714C121.326 126.306 117.061 127.795 112.64 128H51.2C23.04 128 0 151.04 0 179.2V409.6C0 437.76 23.04 460.8 51.2 460.8H460.8C488.96 460.8 512 437.76 512 409.6V179.2C512 151.04 488.96 128 460.8 128ZM256 409.6C222.052 409.6 189.495 396.115 165.49 372.11C141.486 348.105 128 315.548 128 281.6C128 247.652 141.486 215.095 165.49 191.091C189.495 167.086 222.052 153.6 256 153.6C289.948 153.6 322.505 167.086 346.51 191.091C370.514 215.095 384 247.652 384 281.6C384 315.548 370.514 348.105 346.51 372.11C322.505 396.115 289.948 409.6 256 409.6ZM448 209.92C443.247 209.92 438.689 208.032 435.329 204.672C431.968 201.311 430.08 196.753 430.08 192C430.08 187.248 431.968 182.689 435.329 179.329C438.689 175.968 443.247 174.08 448 174.08C452.753 174.08 457.311 175.968 460.671 179.329C464.032 182.689 465.92 187.248 465.92 192C465.92 196.753 464.032 201.311 460.671 204.672C457.311 208.032 452.753 209.92 448 209.92Z" fill="white"/>
</svg>
