<svg width="15" height="15" viewBox="0 0 15 15" fill="none" xmlns="http://www.w3.org/2000/svg">
<path fill-rule="evenodd" clip-rule="evenodd" d="M1.5 0H13.5C14.325 0 15 0.675 15 1.5V13.5C15 14.325 14.325 15 13.5 15H1.5C0.675 15 0 14.325 0 13.5V1.5C0 0.675 0.675 0 1.5 0ZM1.5 13.5H4.5V10.5H1.5V13.5ZM4.5 9H1.5V6H4.5V9ZM1.5 4.5H4.5V1.5H1.5V4.5ZM9 13.5H6V10.5H9V13.5ZM6 9H9V6H6V9ZM9 4.5H6V1.5H9V4.5ZM10.5 13.5H13.5V10.5H10.5V13.5ZM13.5 9H10.5V6H13.5V9ZM10.5 4.5H13.5V1.5H10.5V4.5Z" fill="#E6E6E6"/>
</svg>
