<svg width="20" height="20" viewBox="0 0 20 20" fill="none" xmlns="http://www.w3.org/2000/svg">
<path fill-rule="evenodd" clip-rule="evenodd" d="M18 4.21053H15.82C15.93 3.88421 16 3.52632 16 3.15789C16 1.41053 14.66 0 13 0C11.95 0 11.04 0.568421 10.5 1.42105L10 2.12632L9.5 1.41053C8.96 0.568421 8.05 0 7 0C5.34 0 4 1.41053 4 3.15789C4 3.52632 4.07 3.88421 4.18 4.21053H2C0.89 4.21053 0.01 5.14737 0.01 6.31579L0 17.8947C0 19.0632 0.89 20 2 20H18C19.11 20 20 19.0632 20 17.8947V6.31579C20 5.14737 19.11 4.21053 18 4.21053ZM13 2.10526C13.55 2.10526 14 2.57895 14 3.15789C14 3.73684 13.55 4.21053 13 4.21053C12.45 4.21053 12 3.73684 12 3.15789C12 2.57895 12.45 2.10526 13 2.10526ZM8 3.15789C8 2.57895 7.55 2.10526 7 2.10526C6.45 2.10526 6 2.57895 6 3.15789C6 3.73684 6.45 4.21053 7 4.21053C7.55 4.21053 8 3.73684 8 3.15789ZM2 17.8947V15.7895H18V17.8947H2ZM2 6.31579V12.6316H18V6.31579H12.92L15 9.29474L13.38 10.5263L10 5.68421L6.62 10.5263L5 9.29474L7.08 6.31579H2Z" fill="white"/>
</svg>
