<svg width="16" height="16" viewBox="0 0 16 16" fill="none" xmlns="http://www.w3.org/2000/svg">
<g clip-path="url(#clip0_596_5337)">
<path fill-rule="evenodd" clip-rule="evenodd" d="M1.6 0H14.4C15.28 0 16 0.72 16 1.6V14.4C16 15.28 15.28 16 14.4 16H1.6C0.72 16 0 15.28 0 14.4V1.6C0 0.72 0.72 0 1.6 0ZM1.6 14.4H4.8V11.2H1.6V14.4ZM4.8 9.6H1.6V6.4H4.8V9.6ZM1.6 4.8H4.8V1.6H1.6V4.8ZM9.6 14.4H6.4V11.2H9.6V14.4ZM6.4 9.6H9.6V6.4H6.4V9.6ZM9.6 4.8H6.4V1.6H9.6V4.8ZM11.2 14.4H14.4V11.2H11.2V14.4ZM14.4 9.6H11.2V6.4H14.4V9.6ZM11.2 4.8H14.4V1.6H11.2V4.8Z" fill="#E6E6E6"/>
</g>
<defs>
<clipPath id="clip0_596_5337">
<rect width="16" height="16" fill="white"/>
</clipPath>
</defs>
</svg>
