<svg width="15" height="13" viewBox="0 0 15 13" fill="none" xmlns="http://www.w3.org/2000/svg">
<path d="M0.738281 6.5C1.3261 3.29985 4.12983 0.875 7.49994 0.875C10.87 0.875 13.6738 3.29985 14.2616 6.5C13.6738 9.70012 10.87 12.125 7.49994 12.125C4.12983 12.125 1.3261 9.70012 0.738281 6.5ZM7.49994 9.625C9.22582 9.625 10.6249 8.22587 10.6249 6.5C10.6249 4.77411 9.22582 3.375 7.49994 3.375C5.77403 3.375 4.37492 4.77411 4.37492 6.5C4.37492 8.22587 5.77403 9.625 7.49994 9.625ZM7.49994 8.375C6.46438 8.375 5.62492 7.53556 5.62492 6.5C5.62492 5.46444 6.46438 4.625 7.49994 4.625C8.53544 4.625 9.37494 5.46444 9.37494 6.5C9.37494 7.53556 8.53544 8.375 7.49994 8.375Z" fill="#030303"/>
</svg>
