<svg width="10" height="16" viewBox="0 0 10 16" fill="none" xmlns="http://www.w3.org/2000/svg">
<path d="M3.07969 9.03953C3.01969 9.03953 1.69969 9.03953 1.09969 9.03953C0.779688 9.03953 0.679688 8.91953 0.679688 8.61953C0.679688 7.81953 0.679688 6.99953 0.679688 6.19953C0.679688 5.87953 0.799688 5.77953 1.09969 5.77953H3.07969C3.07969 5.71953 3.07969 4.55953 3.07969 4.01953C3.07969 3.21953 3.21969 2.45953 3.61969 1.75953C4.03969 1.03953 4.63969 0.559531 5.39969 0.279531C5.89969 0.0995311 6.39969 0.0195312 6.93969 0.0195312H8.89969C9.17969 0.0195312 9.29969 0.139531 9.29969 0.419531V2.69953C9.29969 2.97953 9.17969 3.09953 8.89969 3.09953C8.35969 3.09953 7.81969 3.09953 7.27969 3.11953C6.73969 3.11953 6.45969 3.37953 6.45969 3.93953C6.43969 4.53953 6.45969 5.11953 6.45969 5.73953H8.77969C9.09969 5.73953 9.21969 5.85953 9.21969 6.17953V8.59953C9.21969 8.91953 9.11969 9.01953 8.77969 9.01953C8.05969 9.01953 6.51969 9.01953 6.45969 9.01953V15.5395C6.45969 15.8795 6.35969 15.9995 5.99969 15.9995C5.15969 15.9995 4.33969 15.9995 3.49969 15.9995C3.19969 15.9995 3.07969 15.8795 3.07969 15.5795C3.07969 13.4795 3.07969 9.09953 3.07969 9.03953Z" fill="white"/>
</svg>
