<svg width="164" height="164" viewBox="0 0 164 164" fill="none" xmlns="http://www.w3.org/2000/svg">
<path d="M122.385 64.0625C121.935 63.2834 121.698 62.3996 121.698 61.5C121.698 60.6004 121.935 59.7166 122.385 58.9375L131.2 43.5625C132.55 41.2245 133.26 38.5723 133.26 35.8725C133.259 33.1728 132.548 30.5208 131.198 28.1832C129.847 25.8456 127.905 23.9049 125.566 22.5562C123.227 21.2074 120.575 20.4983 117.875 20.5H35.875C34.5158 20.5 33.2122 21.04 32.2511 22.0011C31.29 22.9622 30.75 24.2658 30.75 25.625V138.375C30.75 139.734 31.29 141.038 32.2511 141.999C33.2122 142.96 34.5158 143.5 35.875 143.5C37.2342 143.5 38.5378 142.96 39.4989 141.999C40.46 141.038 41 139.734 41 138.375V102.5H117.875C120.567 102.497 123.211 101.786 125.543 100.44C127.874 99.0941 129.812 97.1594 131.161 94.8296C132.51 92.4998 133.223 89.8566 133.23 87.1644C133.237 84.4723 132.537 81.8254 131.2 79.4888L122.385 64.0625Z" fill="black"/>
</svg>
