<svg width="13" height="14" viewBox="0 0 13 14" fill="none" xmlns="http://www.w3.org/2000/svg">
<path d="M8.03125 10.875L6.5 13.0625L4.96875 10.875H0.875C0.709238 10.875 0.550269 10.8091 0.433056 10.6919C0.31585 10.5747 0.25 10.4157 0.25 10.25V1.5C0.25 1.33424 0.31585 1.17527 0.433056 1.05806C0.550269 0.94085 0.709238 0.875 0.875 0.875H12.125C12.2907 0.875 12.4497 0.94085 12.5669 1.05806C12.6841 1.17527 12.75 1.33424 12.75 1.5V10.25C12.75 10.4157 12.6841 10.5747 12.5669 10.6919C12.4497 10.8091 12.2907 10.875 12.125 10.875H8.03125ZM7.38063 9.625H11.5V2.125H1.5V9.625H5.61937L6.5 10.8825L7.38063 9.625Z" fill="#E6E6E6"/>
</svg>
