<svg width="4" height="12" viewBox="0 0 4 12" fill="none" xmlns="http://www.w3.org/2000/svg">
<path d="M1.9974 0C1.26406 0 0.664062 0.6 0.664062 1.33333C0.664062 2.06667 1.26406 2.66667 1.9974 2.66667C2.73073 2.66667 3.33073 2.06667 3.33073 1.33333C3.33073 0.6 2.73073 0 1.9974 0ZM1.9974 9.33333C1.26406 9.33333 0.664062 9.93333 0.664062 10.6667C0.664062 11.4 1.26406 12 1.9974 12C2.73073 12 3.33073 11.4 3.33073 10.6667C3.33073 9.93333 2.73073 9.33333 1.9974 9.33333ZM1.9974 4.66667C1.26406 4.66667 0.664062 5.26667 0.664062 6C0.664062 6.73333 1.26406 7.33333 1.9974 7.33333C2.73073 7.33333 3.33073 6.73333 3.33073 6C3.33073 5.26667 2.73073 4.66667 1.9974 4.66667Z" fill="url(#paint0_linear_447_2153)"/>
<defs>
<linearGradient id="paint0_linear_447_2153" x1="0.688921" y1="9.45011" x2="3.29029" y2="9.45148" gradientUnits="userSpaceOnUse">
<stop stop-color="#00FFDD"/>
<stop offset="0.161458" stop-color="#2BCAE4"/>
<stop offset="0.328125" stop-color="#6383EE"/>
<stop offset="0.505208" stop-color="#904BF5"/>
<stop offset="0.677083" stop-color="#B123FA"/>
<stop offset="0.822917" stop-color="#C50AFE"/>
<stop offset="1" stop-color="#CC01FF"/>
</linearGradient>
</defs>
</svg>
