<svg width="20" height="20" viewBox="0 0 20 20" fill="none" xmlns="http://www.w3.org/2000/svg">
<circle cx="10" cy="10" r="10" fill="white" fill-opacity="0.2"/>
<path fill-rule="evenodd" clip-rule="evenodd" d="M10 7C10.825 7 11.5 6.325 11.5 5.5C11.5 4.675 10.825 4 10 4C9.175 4 8.5 4.675 8.5 5.5C8.5 6.325 9.175 7 10 7ZM10 8.5C9.175 8.5 8.5 9.175 8.5 10C8.5 10.825 9.175 11.5 10 11.5C10.825 11.5 11.5 10.825 11.5 10C11.5 9.175 10.825 8.5 10 8.5ZM8.5 14.5C8.5 13.675 9.175 13 10 13C10.825 13 11.5 13.675 11.5 14.5C11.5 15.325 10.825 16 10 16C9.175 16 8.5 15.325 8.5 14.5Z" fill="white"/>
</svg>
