<svg width="160" height="160" viewBox="0 0 160 160" fill="none" xmlns="http://www.w3.org/2000/svg">
<g clip-path="url(#clip0_435_2136)">
<path d="M32 16H16V32H32V16Z" fill="white"/>
<path d="M112 0V8H104V16H112V48H120V56H112V64H120H128V48H152V56H160V48V0H112ZM152 40H120V8H152V40Z" fill="white"/>
<path d="M144 16H128V32H144V16Z" fill="white"/>
<path d="M32 128H16V144H32V128Z" fill="white"/>
<path d="M120 112H112V120H120V112Z" fill="white"/>
<path d="M80 152H72V160H80V152Z" fill="white"/>
<path d="M88 120H80V128H88V120Z" fill="white"/>
<path d="M88 136H80V144H88V136Z" fill="white"/>
<path d="M160 96H152V104H160V96Z" fill="white"/>
<path d="M8 96H0V104H8V96Z" fill="white"/>
<path d="M8 56H0V64H8V56Z" fill="white"/>
<path d="M88 8V16H72V24H96V16V8H88Z" fill="white"/>
<path d="M152 64V72H136V80H112V72H104V80H88V88H112V96H96H88V88H80V96H72V88H64V96H56V104H72V112H80V104H96V112H88V120H96V136H104V144H112V136H136V120H144V112H136V96H120V88H136V96H144V88H152V80H160V72V64H152ZM128 104V128H104V104H128Z" fill="white"/>
<path d="M104 48H96V56H88V64V72H96V64H104V56H112V48H104Z" fill="white"/>
<path d="M104 152H88V160H104V152Z" fill="white"/>
<path d="M72 8H64V16H72V8Z" fill="white"/>
<path d="M136 64H128V72H136V64Z" fill="white"/>
<path d="M144 56H136V64H144V56Z" fill="white"/>
<path d="M40 96H32V104H40V96Z" fill="white"/>
<path d="M48 152V120H56V112V104H48V112H24V104H16H8V112H0V160H48H64V152H48ZM40 152H8V120H40V152Z" fill="white"/>
<path d="M56 48H48V56H56V48Z" fill="white"/>
<path d="M56 0H48H0V48H8V56H16V48H24V56H32V48H48V32H56V24H48V8H56H64V0H56ZM40 40H8V8H40V40Z" fill="white"/>
<path d="M104 24H96V32H104V24Z" fill="white"/>
<path d="M88 0H80V8H88V0Z" fill="white"/>
<path d="M96 48V40H88V32H80V40H64V32H56V40V48H64V64H40V56H32V64H8V72H24V80H0V88H24V96H32V88H40V96H48V88H64V80H56V72H64H72V80H80H88V72H80V64H72V48H96ZM48 80H32V72H48V80Z" fill="white"/>
<path d="M72 128V120V112H64V120H56V128H64V136H56V144H72V136H80V128H72Z" fill="white"/>
<path d="M144 144V136H136V144H112V152H128V160H136V152H152V160H160V152V144H144Z" fill="white"/>
<path d="M152 112V120H144V128H160V120V112H152Z" fill="white"/>
</g>
<defs>
<clipPath id="clip0_435_2136">
<rect width="160" height="160" fill="white"/>
</clipPath>
</defs>
</svg>
