<svg width="13" height="13" viewBox="0 0 13 13" fill="none" xmlns="http://www.w3.org/2000/svg">
<path d="M9.33333 10.0417V9.33333H7.20833V7.20833H9.33333V8.625H10.75V10.0417H10.0417V11.4583H8.625V12.875H7.20833V10.75H8.625V10.0417H9.33333ZM12.875 12.875H10.0417V11.4583H11.4583V10.0417H12.875V12.875ZM0.125 0.125H5.79167V5.79167H0.125V0.125ZM7.20833 0.125H12.875V5.79167H7.20833V0.125ZM0.125 7.20833H5.79167V12.875H0.125V7.20833ZM10.75 7.20833H12.875V8.625H10.75V7.20833ZM2.25 2.25V3.66667H3.66667V2.25H2.25ZM2.25 9.33333V10.75H3.66667V9.33333H2.25ZM9.33333 2.25V3.66667H10.75V2.25H9.33333Z" fill="#030303"/>
</svg>
