<svg width="16" height="16" viewBox="0 0 16 16" fill="none" xmlns="http://www.w3.org/2000/svg">
<path d="M3.33404 2.66737C4.90757 2.66737 6.41667 2.04228 7.52933 0.92964C7.78967 0.669287 8.21173 0.669287 8.47213 0.92964C9.58479 2.04229 11.0939 2.66737 12.6674 2.66737C13.0355 2.66737 13.3341 2.96585 13.3341 3.33404C13.3341 4.90757 13.9592 6.41666 15.0718 7.52932C15.3321 7.78965 15.3321 8.21179 15.0718 8.47212C13.9591 9.58477 13.3341 11.0939 13.3341 12.6674C13.3341 13.0356 13.0355 13.3341 12.6674 13.3341C11.0939 13.3341 9.58479 13.9591 8.47213 15.0718C8.21173 15.3321 7.78967 15.3321 7.52933 15.0718C6.41667 13.9591 4.90757 13.3341 3.33404 13.3341C2.96585 13.3341 2.66737 13.0356 2.66737 12.6674C2.66737 11.0939 2.04229 9.58477 0.92964 8.47212C0.669287 8.21179 0.669287 7.78965 0.92964 7.52932C2.04229 6.41666 2.66737 4.90757 2.66737 3.33404C2.66737 2.96585 2.96585 2.66737 3.33404 2.66737ZM8.00073 10.0007C9.10527 10.0007 10.0007 9.10525 10.0007 8.00072C10.0007 6.89612 9.10527 6.00071 8.00073 6.00071C6.89613 6.00071 6.00071 6.89612 6.00071 8.00072C6.00071 9.10525 6.89613 10.0007 8.00073 10.0007Z" fill="url(#paint0_linear_468_2351)"/>
<defs>
<linearGradient id="paint0_linear_468_2351" x1="0.869849" y1="12.179" x2="15.0466" y2="12.2125" gradientUnits="userSpaceOnUse">
<stop stop-color="#00FFDD"/>
<stop offset="0.161458" stop-color="#2BCAE4"/>
<stop offset="0.328125" stop-color="#6383EE"/>
<stop offset="0.505208" stop-color="#904BF5"/>
<stop offset="0.677083" stop-color="#B123FA"/>
<stop offset="0.822917" stop-color="#C50AFE"/>
<stop offset="1" stop-color="#CC01FF"/>
</linearGradient>
</defs>
</svg>
