<svg width="120" height="120" viewBox="0 0 120 120" fill="none" xmlns="http://www.w3.org/2000/svg">
<path d="M116.4 61.6909C117.473 60.2229 118.234 58.5512 118.637 56.7785C119.04 55.0058 119.077 53.1693 118.746 51.3818C118.442 49.582 117.779 47.8619 116.795 46.3247C115.81 44.7876 114.526 43.465 113.018 42.4364L105.055 37.0364C104.724 36.8083 104.449 36.5082 104.25 36.1587C104.052 35.8091 103.935 35.4192 103.909 35.0182L103.2 25.4727C103.072 23.6531 102.575 21.8785 101.741 20.2565C100.907 18.6344 99.7514 17.1987 98.3456 16.0364C96.9509 14.8592 95.3348 13.9729 93.5925 13.4295C91.8501 12.8862 90.0167 12.6969 88.2001 12.8727L78.7092 13.8545C78.2981 13.9083 77.8801 13.862 77.4907 13.7196C77.1014 13.5771 76.7522 13.3427 76.4728 13.0364L69.7637 6.16364C68.4891 4.86802 66.9694 3.83905 65.2932 3.13667C63.6169 2.4343 61.8176 2.07257 60.0001 2.07257C58.1826 2.07257 56.3833 2.4343 54.7071 3.13667C53.0308 3.83905 51.5111 4.86802 50.2365 6.16364L43.5274 13.0364C43.248 13.3427 42.8988 13.5771 42.5095 13.7196C42.1201 13.862 41.7021 13.9083 41.291 13.8545L31.8001 12.8727C29.9851 12.7007 28.1541 12.8913 26.4135 13.4337C24.673 13.9761 23.0577 14.8593 21.6618 16.0319C20.2658 17.2045 19.1171 18.643 18.2824 20.2638C17.4478 21.8847 16.9439 23.6553 16.8001 25.4727L16.091 35.0182C16.0599 35.4317 15.9359 35.8329 15.7281 36.1918C15.5203 36.5507 15.2342 36.858 14.891 37.0909L6.98192 42.4909C5.48378 43.5169 4.20553 44.8316 3.22211 46.358C2.23868 47.8844 1.56988 49.5918 1.25491 51.38C0.939933 53.1683 0.985125 55.0014 1.38783 56.7719C1.79054 58.5425 2.54266 60.2148 3.6001 61.6909L9.21828 69.4909C9.45476 69.8277 9.61195 70.2137 9.67808 70.6199C9.7442 71.0261 9.71754 71.4419 9.6001 71.8364L6.98192 81.0546C6.49696 82.8117 6.36777 84.648 6.60193 86.4557C6.83609 88.2635 7.42889 90.0062 8.34556 91.5818C9.25296 93.1597 10.4695 94.5381 11.9222 95.6347C13.3749 96.7313 15.034 97.5234 16.8001 97.9636L26.0728 100.309C26.4698 100.409 26.8385 100.598 27.1506 100.863C27.4627 101.128 27.7098 101.461 27.8728 101.836L31.8001 110.564C32.5446 112.23 33.6161 113.729 34.9511 114.974C36.286 116.218 37.8572 117.182 39.5715 117.807C41.2858 118.433 43.1083 118.708 44.931 118.616C46.7536 118.524 48.5392 118.068 50.1819 117.273L58.8001 113.127C59.1721 112.939 59.5832 112.841 60.0001 112.841C60.417 112.841 60.8281 112.939 61.2001 113.127L69.8183 117.273C71.6513 118.173 73.6669 118.64 75.7092 118.636C77.3082 118.635 78.895 118.358 80.4001 117.818C82.1165 117.187 83.6901 116.22 85.0292 114.975C86.3683 113.729 87.4462 112.23 88.2001 110.564L92.1274 101.836C92.2904 101.461 92.5375 101.128 92.8496 100.863C93.1617 100.598 93.5304 100.409 93.9274 100.309L103.2 97.9636C104.966 97.5189 106.624 96.7243 108.077 95.6268C109.53 94.5293 110.748 93.1512 111.659 91.5743C112.569 89.9975 113.154 88.2538 113.378 86.4468C113.602 84.6398 113.461 82.8061 112.964 81.0546L110.4 71.8364C110.283 71.4419 110.256 71.0261 110.322 70.6199C110.388 70.2137 110.545 69.8277 110.782 69.4909L116.4 61.6909ZM84.9274 51.5455L59.6183 76.8546C57.3512 79.0917 54.2942 80.346 51.1092 80.346C47.9241 80.346 44.8672 79.0917 42.6001 76.8546L35.0728 69.3273C34.5154 68.779 34.0727 68.1253 33.7705 67.4042C33.4683 66.6832 33.3126 65.9091 33.3126 65.1273C33.3126 64.3454 33.4683 63.5714 33.7705 62.8503C34.0727 62.1292 34.5154 61.4755 35.0728 60.9273C36.1937 59.8266 37.7019 59.2099 39.2728 59.2099C40.8438 59.2099 42.3519 59.8266 43.4728 60.9273L51.0001 68.4546L76.5819 43.1455C77.6958 42.0388 79.2037 41.4199 80.7739 41.425C82.3441 41.4302 83.848 42.0588 84.9547 43.1727C86.0613 44.2866 86.6802 45.7946 86.6751 47.3647C86.6699 48.9349 86.0413 50.4388 84.9274 51.5455Z" fill="white"/>
</svg>
