<svg width="120" height="120" viewBox="0 0 120 120" fill="none" xmlns="http://www.w3.org/2000/svg">
<path d="M116.354 61.6906C117.426 60.2226 118.188 58.5509 118.591 56.7782C118.994 55.0055 119.031 53.169 118.699 51.3815C118.396 49.5817 117.733 47.8616 116.749 46.3244C115.764 44.7873 114.48 43.4647 112.972 42.4361L105.008 37.0361C104.678 36.808 104.403 36.5079 104.204 36.1584C104.006 35.8088 103.889 35.4189 103.863 35.0179L103.154 25.4724C103.026 23.6528 102.529 21.8782 101.695 20.2562C100.86 18.6341 99.7053 17.1984 98.2994 16.0361C96.9047 14.8589 95.2887 13.9726 93.5463 13.4292C91.804 12.8859 89.9706 12.6966 88.154 12.8724L78.6631 13.8542C78.252 13.908 77.8339 13.8617 77.4446 13.7193C77.0552 13.5768 76.706 13.3424 76.4267 13.0361L69.7176 6.16333C68.443 4.86772 66.9233 3.83874 65.247 3.13637C63.5707 2.43399 61.7714 2.07227 59.954 2.07227C58.1365 2.07227 56.3372 2.43399 54.6609 3.13637C52.9846 3.83874 51.4649 4.86772 50.1903 6.16333L43.4812 13.0361C43.2019 13.3424 42.8527 13.5768 42.4633 13.7193C42.074 13.8617 41.656 13.908 41.2449 13.8542L31.754 12.8724C29.939 12.7003 28.108 12.891 26.3674 13.4334C24.6269 13.9758 23.0116 14.859 21.6156 16.0316C20.2197 17.2042 19.0709 18.6427 18.2363 20.2635C17.4016 21.8844 16.8977 23.655 16.754 25.4724L16.0449 35.0179C16.0138 35.4314 15.8897 35.8326 15.6819 36.1915C15.4741 36.5504 15.188 36.8577 14.8449 37.0906L6.93578 42.4906C5.43763 43.5166 4.15938 44.8313 3.17596 46.3577C2.19254 47.8841 1.52374 49.5915 1.20877 51.3797C0.893791 53.1679 0.938982 55.0011 1.34169 56.7716C1.7444 58.5422 2.49652 60.2145 3.55396 61.6906L9.17214 69.4906C9.40862 69.8274 9.56581 70.2134 9.63194 70.6196C9.69806 71.0258 9.6714 71.4416 9.55396 71.8361L6.93578 81.0542C6.45082 82.8114 6.32163 84.6477 6.55579 86.4554C6.78995 88.2632 7.38275 90.0059 8.29941 91.5815C9.20682 93.1593 10.4233 94.5378 11.876 95.6344C13.3288 96.731 14.9879 97.5231 16.754 97.9633L26.0267 100.309C26.4236 100.409 26.7924 100.598 27.1044 100.863C27.4165 101.128 27.6636 101.461 27.8267 101.836L31.754 110.563C32.4985 112.229 33.57 113.729 34.9049 114.973C36.2399 116.218 37.8111 117.181 39.5254 117.807C41.2397 118.433 43.0622 118.708 44.8848 118.616C46.7074 118.524 48.493 118.067 50.1358 117.272L58.754 113.127C59.1259 112.939 59.537 112.84 59.954 112.84C60.3709 112.84 60.782 112.939 61.154 113.127L69.7721 117.272C71.6051 118.173 73.6208 118.64 75.6631 118.636C77.2621 118.635 78.8489 118.358 80.354 117.818C82.0703 117.187 83.6439 116.22 84.9831 114.975C86.3222 113.729 87.4001 112.23 88.154 110.563L92.0812 101.836C92.2443 101.461 92.4914 101.128 92.8035 100.863C93.1156 100.598 93.4843 100.409 93.8812 100.309L103.154 97.9633C104.92 97.5186 106.578 96.724 108.031 95.6265C109.484 94.529 110.702 93.1509 111.612 91.574C112.523 89.9972 113.108 88.2535 113.332 86.4465C113.556 84.6395 113.415 82.8058 112.918 81.0542L110.354 71.8361C110.237 71.4416 110.21 71.0258 110.276 70.6196C110.342 70.2134 110.499 69.8274 110.736 69.4906L116.354 61.6906ZM84.8812 51.5452L59.5721 76.8542C57.305 79.0914 54.2481 80.3457 51.063 80.3457C47.878 80.3457 44.8211 79.0914 42.554 76.8542L35.0267 69.327C34.4693 68.7787 34.0265 68.125 33.7243 67.4039C33.4221 66.6829 33.2665 65.9088 33.2665 65.127C33.2665 64.3451 33.4221 63.5711 33.7243 62.85C34.0265 62.1289 34.4693 61.4752 35.0267 60.927C36.1476 59.8263 37.6557 59.2096 39.2267 59.2096C40.7976 59.2096 42.3058 59.8263 43.4267 60.927L50.954 68.4542L76.5358 43.1452C77.6497 42.0385 79.1576 41.4196 80.7278 41.4247C82.298 41.4299 83.8018 42.0585 84.9085 43.1724C86.0152 44.2863 86.634 45.7942 86.6289 47.3644C86.6238 48.9346 85.9951 50.4385 84.8812 51.5452Z" fill="url(#paint0_linear_2361_1711)"/>
<defs>
<linearGradient id="paint0_linear_2361_1711" x1="2.10122" y1="93.8673" x2="117.135" y2="94.1426" gradientUnits="userSpaceOnUse">
<stop stop-color="#00FFDD"/>
<stop offset="0.161458" stop-color="#2BCAE4"/>
<stop offset="0.328125" stop-color="#6383EE"/>
<stop offset="0.505208" stop-color="#904BF5"/>
<stop offset="0.677083" stop-color="#B123FA"/>
<stop offset="0.822917" stop-color="#C50AFE"/>
<stop offset="1" stop-color="#CC01FF"/>
</linearGradient>
</defs>
</svg>
