<svg width="24" height="24" viewBox="0 0 24 24" fill="none" xmlns="http://www.w3.org/2000/svg">
<path d="M5.60865 4.86595L15.1763 2.25438L14.6696 1.23024C14.3381 0.564545 13.5296 0.289643 12.8639 0.621143L4.29883 4.86595H5.60865Z" fill="white"/>
<path d="M18.1457 2.33008C18.0271 2.33008 17.9085 2.34625 17.7899 2.37859L15.5422 2.99308L8.67773 4.86618H16.4693H19.8652L19.4447 3.32458C19.283 2.72356 18.7386 2.33008 18.1457 2.33008Z" fill="white"/>
<path d="M21.2698 5.80859H20.9626H20.5449H20.1271H16.9388H5.22313H3.68692H2.39326H2.1534H1.35025C0.924424 5.80859 0.544413 6.00534 0.296463 6.31528C0.183268 6.45812 0.0970242 6.62252 0.0485121 6.80309C0.0188658 6.91629 0 7.03487 0 7.15615V7.31786V8.85407V22.1706C0 22.9145 0.603706 23.5182 1.34756 23.5182H21.2672C22.011 23.5182 22.6147 22.9145 22.6147 22.1706V18.411H14.6183C13.3543 18.411 12.3275 17.3841 12.3275 16.1201V14.8857V14.468V14.0503V13.1231C12.3275 12.5033 12.5754 11.94 12.977 11.5277C13.3327 11.1611 13.8098 10.9131 14.3434 10.8512C14.4323 10.8404 14.524 10.835 14.6156 10.835H21.4935H21.9113H22.329H22.6147V7.15615C22.6174 6.4123 22.0137 5.80859 21.2698 5.80859Z" fill="white"/>
<path d="M23.5614 12.1245C23.4267 12.0005 23.2677 11.9062 23.0898 11.8442C22.9523 11.7984 22.8068 11.7715 22.6532 11.7715H22.6181H22.5912H22.1734H20.6669H14.619C13.8752 11.7715 13.2715 12.3752 13.2715 13.119V13.7901V14.2078V14.6256V16.1187C13.2715 16.8625 13.8752 17.4662 14.619 17.4662H22.6181H22.6532C22.8068 17.4662 22.9523 17.4393 23.0898 17.3935C23.2677 17.3342 23.4267 17.2372 23.5614 17.1132C23.8309 16.8679 24.0007 16.5122 24.0007 16.1187V13.119C24.0007 12.7255 23.8309 12.3697 23.5614 12.1245ZM17.4327 14.887C17.4327 15.2589 17.1309 15.5608 16.759 15.5608H16.3116C15.9396 15.5608 15.6378 15.2589 15.6378 14.887V14.4396C15.6378 14.224 15.7375 14.0326 15.8965 13.9114C16.0124 13.8224 16.1553 13.7658 16.3116 13.7658H16.4248H16.759C17.1309 13.7658 17.4327 14.0677 17.4327 14.4396V14.887Z" fill="white"/>
</svg>
